<svg width="24" height="24" viewBox="0 0 24 24" fill="none" xmlns="http://www.w3.org/2000/svg">
<path d="M6 7H5.46722C4.92791 7 4.48574 7.42767 4.46778 7.96669L4.03444 20.9667C4.01561 21.5317 4.46855 22 5.03389 22H17.9661C18.5315 22 18.9844 21.5317 18.9656 20.9667L18.5322 7.96669C18.5143 7.42767 18.0721 7 17.5328 7H17M10.5 7H12.5" stroke="#161616" stroke-width="1.5" stroke-linecap="round"/>
<path d="M8.5 10V4C8.5 2.89543 9.39543 2 10.5 2H12.5C13.6046 2 14.5 2.89543 14.5 4V10" stroke="#161616" stroke-width="1.5"/>
<circle cx="8.5" cy="10" r="1" fill="#161616"/>
<circle cx="14.5" cy="10" r="1" fill="#161616"/>
</svg>
