<svg width="40" height="40" viewBox="0 0 40 40" fill="none" xmlns="http://www.w3.org/2000/svg">
<path d="M8 19C7.44772 19 7 19.4477 7 20C7 20.5523 7.44772 21 8 21L8 19ZM32.7071 20.7071C33.0976 20.3166 33.0976 19.6834 32.7071 19.2929L26.3431 12.9289C25.9526 12.5384 25.3195 12.5384 24.9289 12.9289C24.5384 13.3195 24.5384 13.9526 24.9289 14.3431L30.5858 20L24.9289 25.6569C24.5384 26.0474 24.5384 26.6805 24.9289 27.0711C25.3195 27.4616 25.9526 27.4616 26.3431 27.0711L32.7071 20.7071ZM8 21L32 21L32 19L8 19L8 21Z" fill="#f4f4f4"/>
</svg>
