<svg width="429" height="141" viewBox="0 0 429 141" fill="none" xmlns="http://www.w3.org/2000/svg">
<g filter="url(#filter0_dd_389_2775)">
<path d="M13.8105 111.739H42.151L44.2196 98.6741H45.0471C46.9089 106.762 53.5285 112.776 64.6992 112.776C81.6621 112.776 98.2113 99.5036 102.762 71.9212C107.52 43.0945 94.2809 31.0661 78.5592 31.0661C66.7679 31.0661 58.0796 37.9099 53.7354 45.998H53.3217L59.9413 5.55762H31.394L13.8105 111.739ZM48.3569 71.9212C50.2187 60.1002 56.2178 53.0491 64.0786 53.0491C71.9395 53.0491 75.2493 60.1002 73.3875 71.9212C71.5258 83.7423 65.7336 90.7934 57.8727 90.7934C50.0118 90.7934 46.4952 83.5349 48.3569 71.9212Z" fill="#898885"/>
<path d="M154.22 5.55762H125.673L108.089 111.739H136.636L154.22 5.55762Z" fill="#898885"/>
<path d="M173.109 112.984C183.452 112.984 191.934 109.458 198.14 100.541H198.76L196.899 111.739H223.584L232.686 57.1968C235.169 42.4724 222.964 31.0661 200.415 31.0661C176.626 31.0661 162.766 43.5093 159.456 58.0264H185.728C187.176 53.0491 191.313 50.7678 196.692 50.7678C201.656 50.7678 204.759 53.0491 204.139 57.1968V57.4042C203.311 61.9667 197.933 63.4184 184.487 64.4553C167.938 65.6997 154.078 72.336 151.182 89.7565C148.492 105.518 158.008 112.984 173.109 112.984ZM185.521 94.9411C180.556 94.9411 177.66 92.4525 178.281 88.0974C178.901 83.9497 182.418 80.8389 189.245 79.8019C193.796 78.9724 197.933 78.1428 201.036 76.8985L200.002 83.5349C198.76 90.7934 191.934 94.9411 185.521 94.9411Z" fill="#898885"/>
<path d="M275.287 113.191C298.87 113.191 315.419 99.711 319.35 78.5576H292.871C290.802 86.8531 285.631 91.4156 279.218 91.4156C271.771 91.4156 268.047 84.9866 270.116 71.9212C272.184 58.8559 278.183 52.4269 285.837 52.4269C292.043 52.4269 295.56 56.9894 294.939 65.2849H321.418C324.728 44.5463 312.316 31.0661 288.94 31.0661C263.082 31.0661 244.878 47.657 240.948 72.1286C236.811 96.6002 249.429 113.191 275.287 113.191Z" fill="#898885"/>
<path d="M325.543 111.739H354.09L357.813 89.1862L362.985 83.7423L374.569 111.739H407.254L386.93 67.0477L419.666 32.1031H387.602L363.812 58.8559H362.83L371.673 5.55762H343.126L325.543 111.739Z" fill="#898885"/>
</g>
<defs>
<filter id="filter0_dd_389_2775" x="0.956356" y="0.579381" width="433.564" height="139.535" filterUnits="userSpaceOnUse" color-interpolation-filters="sRGB">
<feFlood flood-opacity="0" result="BackgroundImageFix"/>
<feColorMatrix in="SourceAlpha" type="matrix" values="0 0 0 0 0 0 0 0 0 0 0 0 0 0 0 0 0 0 127 0" result="hardAlpha"/>
<feOffset dx="1" dy="5.43135"/>
<feGaussianBlur stdDeviation="5.2048"/>
<feColorMatrix type="matrix" values="0 0 0 0 0 0 0 0 0 0 0 0 0 0 0 0 0 0 0.117297 0"/>
<feBlend mode="normal" in2="BackgroundImageFix" result="effect1_dropShadow_389_2775"/>
<feColorMatrix in="SourceAlpha" type="matrix" values="0 0 0 0 0 0 0 0 0 0 0 0 0 0 0 0 0 0 127 0" result="hardAlpha"/>
<feOffset dx="1" dy="13.0687"/>
<feGaussianBlur stdDeviation="6.9271"/>
<feColorMatrix type="matrix" values="0 0 0 0 0 0 0 0 0 0 0 0 0 0 0 0 0 0 0.0945694 0"/>
<feBlend mode="normal" in2="effect1_dropShadow_389_2775" result="effect2_dropShadow_389_2775"/>
<feBlend mode="normal" in="SourceGraphic" in2="effect2_dropShadow_389_2775" result="shape"/>
</filter>
</defs>
</svg>
