<svg width="24" height="24" viewBox="0 0 24 24" fill="none" xmlns="http://www.w3.org/2000/svg">
<path d="M1 3.5C0.723858 3.5 0.5 3.72386 0.5 4C0.5 4.27614 0.723858 4.5 1 4.5V3.5ZM5.07668 4.86063L4.58156 4.93032L4.58156 4.93032L5.07668 4.86063ZM6.52332 15.1394L6.0282 15.209L6.0282 15.209L6.52332 15.1394ZM18.6578 15.2456L18.1731 15.1228L18.1731 15.1228L18.6578 15.2456ZM20.6845 7.24558L21.1691 7.36837L21.1691 7.36836L20.6845 7.24558ZM11.7111 5.5C11.435 5.5 11.2111 5.72386 11.2111 6C11.2111 6.27614 11.435 6.5 11.7111 6.5V5.5ZM1 4.5H4.08644V3.5H1V4.5ZM4.58156 4.93032L6.0282 15.209L7.01844 15.0697L5.5718 4.79095L4.58156 4.93032ZM7.51356 16.5H17.6884V15.5H7.51356V16.5ZM19.1425 15.3684L21.1691 7.36837L20.1998 7.12279L18.1731 15.1228L19.1425 15.3684ZM19.7151 5.5H11.7111V6.5H19.7151V5.5ZM21.1691 7.36836C21.4093 6.42051 20.6929 5.5 19.7151 5.5V6.5C20.041 6.5 20.2798 6.80684 20.1998 7.12279L21.1691 7.36836ZM17.6884 16.5C18.375 16.5 18.9739 16.0339 19.1425 15.3684L18.1731 15.1228C18.1169 15.3446 17.9173 15.5 17.6884 15.5V16.5ZM6.0282 15.209C6.1324 15.9494 6.7659 16.5 7.51356 16.5V15.5C7.26434 15.5 7.05317 15.3165 7.01844 15.0697L6.0282 15.209ZM4.08644 4.5C4.33566 4.5 4.54683 4.68353 4.58156 4.93032L5.5718 4.79095C5.4676 4.05059 4.8341 3.5 4.08644 3.5V4.5Z" fill="#f4f4f4"/>
<circle cx="9" cy="20" r="1.5" stroke="#f4f4f4"/>
<circle cx="17" cy="20" r="1.5" stroke="#f4f4f4"/>
</svg>
