<svg width="358" height="145" viewBox="0 0 358 145" fill="none" xmlns="http://www.w3.org/2000/svg">
<g filter="url(#filter0_dd_389_7930)">
<path d="M47.867 117.341C72.8976 117.341 91.5154 105.934 94.6184 85.6104L107.858 6.18146H79.3104L77.0349 20.0763H76.4143C74.5525 11.9883 68.3466 5.14453 56.5553 5.14453C40.8336 5.14453 23.457 17.1729 18.6991 45.9996C14.1481 73.582 26.56 84.7809 43.5229 84.7809C54.2798 84.7809 63.5887 80.2184 67.9329 72.1303H68.7603L66.4848 85.6104C65.2436 94.9428 59.2446 98.0536 51.7974 98.0536C45.1778 98.0536 40.8336 96.1871 40.6268 91.0025H13.1138C11.8726 106.349 23.8707 117.341 47.867 117.341ZM57.3828 64.457C49.5219 64.457 46.2121 57.8207 48.0739 45.9996C49.9357 34.1786 55.7279 27.1275 63.5887 27.1275C71.4496 27.1275 74.9663 34.1786 73.1045 45.9996C71.2427 57.6133 65.2436 64.457 57.3828 64.457Z" fill="#DDDCD9"/>
<path d="M109.138 85.8178H137.685L144.512 44.3406C146.166 35.2156 153.407 29.2013 161.681 29.2013C164.784 29.2013 169.335 29.6161 172.025 30.6531L176.162 6.18146C173.886 5.5593 171.611 5.14453 169.128 5.14453C160.647 5.14453 153.2 10.1218 148.442 21.3207H147.615L150.097 6.18146H122.377L109.138 85.8178Z" fill="#DDDCD9"/>
<path d="M205.588 87.2695C227.723 87.2695 243.445 76.6928 249.03 60.1019H222.965C220.483 64.6644 215.311 67.153 209.519 67.153C201.037 67.153 197.107 61.5536 198.348 53.8803L198.607 52.636H250.271L251.305 45.9996C255.443 20.6985 242.617 5.14453 218.621 5.14453C194.004 5.14453 175.593 21.528 171.456 46.207C167.111 71.9229 180.144 87.2695 205.588 87.2695ZM201.554 36.8746C203.158 29.8754 209.26 25.261 216.138 25.261C223.172 25.261 227.516 30.0309 226.482 36.8746H201.554Z" fill="#DDDCD9"/>
<path d="M266.717 115.681C286.679 115.681 297.643 105.623 304.263 92.4542L347.497 6.18146H316.468L294.23 61.3462H293.402L289.782 6.18146H261.028L275.198 89.3434L274.267 90.7951C271.475 95.1502 266.2 95.0465 259.58 92.5579L249.961 112.882C254.201 114.645 260.097 115.681 266.717 115.681Z" fill="#DDDCD9"/>
</g>
<defs>
<filter id="filter0_dd_389_7930" x="0.172176" y="0.166296" width="362.179" height="144.097" filterUnits="userSpaceOnUse" color-interpolation-filters="sRGB">
<feFlood flood-opacity="0" result="BackgroundImageFix"/>
<feColorMatrix in="SourceAlpha" type="matrix" values="0 0 0 0 0 0 0 0 0 0 0 0 0 0 0 0 0 0 127 0" result="hardAlpha"/>
<feOffset dx="1" dy="5.43135"/>
<feGaussianBlur stdDeviation="5.2048"/>
<feColorMatrix type="matrix" values="0 0 0 0 0 0 0 0 0 0 0 0 0 0 0 0 0 0 0.117297 0"/>
<feBlend mode="normal" in2="BackgroundImageFix" result="effect1_dropShadow_389_7930"/>
<feColorMatrix in="SourceAlpha" type="matrix" values="0 0 0 0 0 0 0 0 0 0 0 0 0 0 0 0 0 0 127 0" result="hardAlpha"/>
<feOffset dx="1" dy="13.0687"/>
<feGaussianBlur stdDeviation="6.9271"/>
<feColorMatrix type="matrix" values="0 0 0 0 0 0 0 0 0 0 0 0 0 0 0 0 0 0 0.0945694 0"/>
<feBlend mode="normal" in2="effect1_dropShadow_389_7930" result="effect2_dropShadow_389_7930"/>
<feBlend mode="normal" in="SourceGraphic" in2="effect2_dropShadow_389_7930" result="shape"/>
</filter>
</defs>
</svg>
