<svg id="Layer_1" data-name="Layer 1" xmlns="http://www.w3.org/2000/svg" viewBox="0 0 783.71 114.38">
  <defs>
    <style>
      .cls-1 {
        fill: #f4f4f4;
      }

      .cls-2 {
        fill: #f4f4f4;
      }
    </style>
  </defs>
  <polygon class="cls-1" points="129.44 2.89 84.32 2.89 42.56 54.74 42.57 2 0 2 0 111.5 42.57 111.5 42.59 59.84 83.61 112.38 130.62 112.38 86.69 55.62 129.44 2.89"/>
  <path class="cls-1" d="M289.18,253.64q-7.55-6.82-20.83-10.12t-34.72-3.3q-21.18,0-34.48,3.3t-20.83,10.12a34.43,34.43,0,0,0-10.23,17.76,109.19,109.19,0,0,0-2.71,26q0,15.3,2.71,26.13a35.49,35.49,0,0,0,10.12,17.77q7.41,6.94,20.83,10.12t34.59,3.17q21.42,0,34.72-3.17t20.83-10.12a35.16,35.16,0,0,0,10.24-17.77,109.41,109.41,0,0,0,2.7-26.13,109.75,109.75,0,0,0-2.7-26A34.51,34.51,0,0,0,289.18,253.64Zm-26.95,55.89a16,16,0,0,1-4.24,8.24,18.66,18.66,0,0,1-9.06,4.59,67.66,67.66,0,0,1-15.3,1.41,67.33,67.33,0,0,1-15.41-1.41,18.58,18.58,0,0,1-8.95-4.59,16,16,0,0,1-4.23-8.24,69.82,69.82,0,0,1,0-24.24,15.31,15.31,0,0,1,4.23-8.12,19.2,19.2,0,0,1,8.95-4.47,67.33,67.33,0,0,1,15.41-1.41,67.66,67.66,0,0,1,15.3,1.41,19.29,19.29,0,0,1,9.06,4.47,15.32,15.32,0,0,1,4.24,8.12,69.82,69.82,0,0,1,0,24.24Z" transform="translate(-29.53 -240.22)"/>
  <path class="cls-1" d="M440.56,253.64q-7.55-6.82-20.83-10.12T385,240.22q-21.18,0-34.48,3.3t-20.82,10.12a34.38,34.38,0,0,0-10.24,17.76,109.19,109.19,0,0,0-2.71,26q0,15.3,2.71,26.13a35.42,35.42,0,0,0,10.12,17.77q7.41,6.94,20.83,10.12T385,354.6q21.42,0,34.72-3.17t20.83-10.12a35.07,35.07,0,0,0,10.23-17.77q2.71-10.83,2.71-26.13a109.19,109.19,0,0,0-2.71-26A34.43,34.43,0,0,0,440.56,253.64Zm-26.95,55.89a16,16,0,0,1-4.24,8.24,18.62,18.62,0,0,1-9.06,4.59,84.31,84.31,0,0,1-30.71,0,18.58,18.58,0,0,1-9-4.59,16,16,0,0,1-4.23-8.24,69.82,69.82,0,0,1,0-24.24,15.31,15.31,0,0,1,4.23-8.12,19.2,19.2,0,0,1,9-4.47,84.31,84.31,0,0,1,30.71,0,19.24,19.24,0,0,1,9.06,4.47,15.32,15.32,0,0,1,4.24,8.12,69.82,69.82,0,0,1,0,24.24Z" transform="translate(-29.53 -240.22)"/>
  <path class="cls-1" d="M605.75,299.47l42.36-34.53v87H605.75Z" transform="translate(-29.53 -240.22)"/>
  <path class="cls-2" d="M605.75,287l41.48-33.86V242.87l-41.48,0Z" transform="translate(-29.53 -240.22)"/>
  <path class="cls-1" d="M672,243h78.61q17.42,0,29.41,2.59t19.42,7.88a29.19,29.19,0,0,1,10.59,13.65,55.15,55.15,0,0,1,3.18,19.65V352H770.88v-60q0-8-4.24-11.53t-16-3.53H714.39V352H672Z" transform="translate(-29.53 -240.22)"/>
  <path class="cls-1" d="M532.9,271.44H467.74V243H585.13v26.11L520.2,322h40.65l-36.2,29.88H467.74V323Z" transform="translate(-29.53 -240.22)"/>
  <path class="cls-2" d="M575,322.91h10.06v29H539.87Z" transform="translate(-29.53 -240.22)"/>
</svg>
