<svg width="24" height="24" viewBox="0 0 24 24" fill="none" xmlns="http://www.w3.org/2000/svg">
<path d="M0 12C0 5.37258 5.37258 0 12 0C18.6274 0 24 5.37258 24 12C24 18.6274 18.6274 24 12 24C5.37258 24 0 18.6274 0 12Z" fill="#161616"/>
<path d="M11 14.6534H12.625V14.5455C12.6477 13.2386 13.0227 12.6534 13.9886 12.0568C15.0057 11.4432 15.6307 10.5795 15.6307 9.30114C15.6307 7.45455 14.233 6.20455 12.1477 6.20455C10.233 6.20455 8.69886 7.32386 8.625 9.36932H10.3523C10.4205 8.16477 11.2784 7.63636 12.1477 7.63636C13.1136 7.63636 13.8977 8.27841 13.8977 9.28409C13.8977 10.1307 13.3693 10.7273 12.6932 11.1477C11.6364 11.7955 11.0114 12.4375 11 14.5455V14.6534ZM11.858 18.108C12.4773 18.108 12.9943 17.6023 12.9943 16.9716C12.9943 16.3523 12.4773 15.8409 11.858 15.8409C11.233 15.8409 10.7216 16.3523 10.7216 16.9716C10.7216 17.6023 11.233 18.108 11.858 18.108Z" fill="#FBF9F6"/>
<path d="M12 23C5.92487 23 1 18.0751 1 12H-1C-1 19.1797 4.8203 25 12 25V23ZM23 12C23 18.0751 18.0751 23 12 23V25C19.1797 25 25 19.1797 25 12H23ZM12 1C18.0751 1 23 5.92487 23 12H25C25 4.8203 19.1797 -1 12 -1V1ZM12 -1C4.8203 -1 -1 4.8203 -1 12H1C1 5.92487 5.92487 1 12 1V-1Z" fill="#FBF9F6"/>
</svg>
