<svg width="48" height="48" viewBox="0 0 48 48" fill="none" xmlns="http://www.w3.org/2000/svg">
<rect x="28.9497" y="17.636" width="2" height="16" transform="rotate(45 28.9497 17.636)" fill="#FEFAF1"/>
<rect x="30.364" y="28.9497" width="2" height="16" transform="rotate(135 30.364 28.9497)" fill="#FEFAF1"/>
<path d="M24 34.5C18.201 34.5 13.5 29.799 13.5 24H10.5C10.5 31.4558 16.5442 37.5 24 37.5V34.5ZM34.5 24C34.5 29.799 29.799 34.5 24 34.5V37.5C31.4558 37.5 37.5 31.4558 37.5 24H34.5ZM24 13.5C29.799 13.5 34.5 18.201 34.5 24H37.5C37.5 16.5442 31.4558 10.5 24 10.5V13.5ZM24 10.5C16.5442 10.5 10.5 16.5442 10.5 24H13.5C13.5 18.201 18.201 13.5 24 13.5V10.5Z" fill="#FEFAF1"/>
</svg>
