<svg width="244" height="111" viewBox="0 0 244 111" fill="none" xmlns="http://www.w3.org/2000/svg">
<g filter="url(#filter0_ddd_325_19573)">
<path d="M30.1328 35.2873H32.5681L33.0896 32.1158H34.7328C37.0599 32.1158 38.7228 30.7395 39.0623 28.6101C39.4067 26.5058 38.2358 25.0746 35.9677 25.0746H31.8056L30.1328 35.2873ZM33.4094 30.171L33.9211 27.0643H35.1215C36.2186 27.0643 36.6909 27.6577 36.5433 28.6101C36.3908 29.5526 35.7168 30.171 34.6049 30.171H33.4094Z" fill="#FDF6E2"/>
<path d="M39.157 35.2873H41.5628L42.8223 27.6278H40.4165L39.157 35.2873ZM41.7891 26.7302C42.468 26.7302 43.0929 26.2016 43.1814 25.5633C43.2651 24.92 42.7928 24.4014 42.1089 24.4014C41.43 24.4014 40.8051 24.92 40.7067 25.5633C40.6133 26.2016 41.1053 26.7302 41.7891 26.7302Z" fill="#FDF6E2"/>
<path d="M46.2329 30.919C46.3756 30.0463 46.9709 29.5277 47.7286 29.5277C48.501 29.5277 48.8552 30.0363 48.7175 30.8841L47.9942 35.2873H50.4L51.2069 30.4054C51.4922 28.675 50.6411 27.528 49.0569 27.528C47.9352 27.528 46.9857 28.0965 46.5134 29.034H46.4297L46.656 27.6278H44.3683L43.1088 35.2873H45.5146L46.2329 30.919Z" fill="#FDF6E2"/>
<path d="M51.8747 35.2873H54.2805L54.6594 32.9835L55.2448 32.3901L56.5683 35.2873H59.348L57.2718 30.9689L60.4992 27.6278H57.7736L55.1858 30.3704H55.0874L55.9533 25.0746H53.5475L51.8747 35.2873Z" fill="#FDF6E2"/>
<path d="M69.1925 30.919C69.3352 30.0463 69.9354 29.5277 70.698 29.5277C71.4655 29.5277 71.8296 30.0314 71.6967 30.8841L70.9686 35.2873H73.3744L74.1812 30.4054C74.4666 28.67 73.6105 27.528 72.0313 27.528C70.8899 27.528 69.9994 28.0915 69.5123 29.034H69.4287L70.0683 25.0746H67.7412L66.0684 35.2873H68.4742L69.1925 30.919Z" fill="#FDF6E2"/>
<path d="M76.972 35.417C78.0248 35.417 78.8317 35.0031 79.363 34.2202H79.4221L79.245 35.2873H81.5081L82.3691 30.0812C82.6347 28.4605 81.3507 27.528 79.4418 27.528C77.4049 27.528 76.0766 28.5653 75.6633 29.9615L77.8674 30.0413C78.0445 29.5476 78.5119 29.2534 79.1416 29.2534C79.732 29.2534 80.0469 29.5427 79.9682 30.0563V30.0812C79.8845 30.545 79.363 30.6497 78.0593 30.7644C76.5095 30.8941 75.1418 31.4675 74.8614 33.163C74.6105 34.674 75.5354 35.417 76.972 35.417ZM77.9855 33.8212C77.4197 33.8212 77.0802 33.542 77.159 33.0433C77.2328 32.5447 77.6706 32.2504 78.3791 32.1457C78.8219 32.0709 79.4024 31.9812 79.6877 31.8365L79.5746 32.5646C79.4467 33.3126 78.7481 33.8212 77.9855 33.8212Z" fill="#FDF6E2"/>
<path d="M82.5068 38.1597H84.9126L85.5817 34.0456H85.6506C85.8277 34.7538 86.3984 35.397 87.5398 35.397C89.2125 35.397 90.7869 34.0706 91.21 31.4625C91.6528 28.7597 90.4326 27.528 88.8534 27.528C87.6579 27.528 86.8756 28.2361 86.482 28.9393H86.4082L86.6198 27.6278H84.2386L82.5068 38.1597ZM85.9654 31.4576C86.1622 30.2059 86.8067 29.4329 87.6874 29.4329C88.5828 29.4329 88.937 30.2258 88.7402 31.4576C88.5287 32.6943 87.9137 33.4971 87.0281 33.4971C86.1475 33.4971 85.7687 32.6992 85.9654 31.4576Z" fill="#FDF6E2"/>
<path d="M91.3686 38.1597H93.7744L94.4435 34.0456H94.5124C94.6895 34.7538 95.2602 35.397 96.4016 35.397C98.0744 35.397 99.6487 34.0706 100.072 31.4625C100.515 28.7597 99.2945 27.528 97.7152 27.528C96.5197 27.528 95.7374 28.2361 95.3439 28.9393H95.2701L95.4816 27.6278H93.1004L91.3686 38.1597ZM94.8273 31.4576C95.0241 30.2059 95.6686 29.4329 96.5492 29.4329C97.4446 29.4329 97.7989 30.2258 97.6021 31.4576C97.3905 32.6943 96.7755 33.4971 95.89 33.4971C95.0093 33.4971 94.6305 32.6992 94.8273 31.4576Z" fill="#FDF6E2"/>
<path d="M100.703 35.2873H103.109L104.368 27.6278H101.962L100.703 35.2873ZM103.335 26.7302C104.014 26.7302 104.639 26.2016 104.727 25.5633C104.811 24.92 104.339 24.4014 103.655 24.4014C102.976 24.4014 102.351 24.92 102.253 25.5633C102.159 26.2016 102.651 26.7302 103.335 26.7302Z" fill="#FDF6E2"/>
<path d="M107.779 30.919C107.921 30.0463 108.517 29.5277 109.274 29.5277C110.047 29.5277 110.401 30.0363 110.263 30.8841L109.54 35.2873H111.946L112.753 30.4054C113.038 28.675 112.187 27.528 110.603 27.528C109.481 27.528 108.531 28.0965 108.059 29.034H107.976L108.202 27.6278H105.914L104.655 35.2873H107.06L107.779 30.919Z" fill="#FDF6E2"/>
<path d="M116.933 35.432C118.926 35.432 120.367 34.4595 120.904 32.9536L118.709 32.8887C118.434 33.4024 117.893 33.6716 117.268 33.6716C116.328 33.6716 115.876 33.1081 116.028 32.1357L116.043 32.046H121.076L121.169 31.4376C121.583 28.9193 120.303 27.528 118.158 27.528C115.88 27.528 114.149 29.1138 113.76 31.4875C113.352 33.9359 114.562 35.432 116.933 35.432ZM116.299 30.6298C116.471 29.8718 117.16 29.2883 117.937 29.2883C118.724 29.2883 119.187 29.8468 119.064 30.6298H116.299Z" fill="#FDF6E2"/>
<path d="M129.222 29.9665C129.355 28.4556 128.228 27.528 126.117 27.528C124.14 27.528 122.757 28.3558 122.511 29.8369C122.309 31.0686 122.974 31.8864 124.44 32.1706L125.719 32.425C126.329 32.5496 126.526 32.6893 126.486 32.9735C126.427 33.4173 125.876 33.7564 125.197 33.7415C124.582 33.7315 124.204 33.4472 124.184 32.8837L121.842 32.9436C121.768 34.4446 122.924 35.432 125.138 35.432C127.111 35.432 128.681 34.4795 128.936 32.9635C129.123 31.7867 128.454 31.0686 126.998 30.7744L125.581 30.4951C124.971 30.3655 124.843 30.1909 124.892 29.9516C124.951 29.5127 125.512 29.1986 126.132 29.1986C126.703 29.1986 127.057 29.5327 127.052 30.0264L129.222 29.9665Z" fill="#FDF6E2"/>
<path d="M137.191 29.9665C137.323 28.4556 136.197 27.528 134.086 27.528C132.108 27.528 130.726 28.3558 130.48 29.8369C130.278 31.0686 130.942 31.8864 132.409 32.1706L133.688 32.425C134.298 32.5496 134.495 32.6893 134.455 32.9735C134.396 33.4173 133.845 33.7564 133.166 33.7415C132.551 33.7315 132.172 33.4472 132.153 32.8837L129.811 32.9436C129.737 34.4446 130.893 35.432 133.107 35.432C135.08 35.432 136.649 34.4795 136.905 32.9635C137.092 31.7867 136.423 31.0686 134.967 30.7744L133.55 30.4951C132.94 30.3655 132.812 30.1909 132.861 29.9516C132.92 29.5127 133.481 29.1986 134.101 29.1986C134.672 29.1986 135.026 29.5327 135.021 30.0264L137.191 29.9665Z" fill="#FDF6E2"/>
<path d="M143.369 30.2159H138.71L138.41 32.0958H143.069L143.369 30.2159Z" fill="#FDF6E2"/>
<path d="M154.444 28.7747C154.587 26.3312 152.988 24.9349 150.474 24.9349C147.862 24.9349 145.545 26.7202 145.003 30.0363C144.452 33.4672 146.228 35.427 149.023 35.427C151.734 35.427 153.495 33.5021 153.977 31.6969H151.527C151.197 32.6643 150.312 33.2627 149.156 33.2627C147.803 33.2627 147.129 32.2853 147.439 30.3256C147.773 28.301 148.92 27.0992 150.445 27.0992C151.502 27.0992 152.063 27.7425 152.014 28.7747H154.444Z" fill="#FDF6E2"/>
<path d="M156.891 35.417C157.944 35.417 158.751 35.0031 159.282 34.2202H159.341L159.164 35.2873H161.427L162.288 30.0812C162.554 28.4605 161.27 27.528 159.361 27.528C157.324 27.528 155.995 28.5653 155.582 29.9615L157.786 30.0413C157.963 29.5476 158.431 29.2534 159.061 29.2534C159.651 29.2534 159.966 29.5427 159.887 30.0563V30.0812C159.803 30.545 159.282 30.6497 157.978 30.7644C156.428 30.8941 155.061 31.4675 154.78 33.163C154.529 34.674 155.454 35.417 156.891 35.417ZM157.904 33.8212C157.339 33.8212 156.999 33.542 157.078 33.0433C157.152 32.5447 157.589 32.2504 158.298 32.1457C158.741 32.0709 159.321 31.9812 159.607 31.8365L159.493 32.5646C159.366 33.3126 158.667 33.8212 157.904 33.8212Z" fill="#FDF6E2"/>
<path d="M162.898 35.2873H165.304L165.983 31.1284C166.14 30.2159 166.878 29.6025 167.729 29.6025C168.029 29.6025 168.438 29.6474 168.659 29.7322L169.013 27.6078C168.812 27.5579 168.58 27.523 168.354 27.523C167.528 27.523 166.785 28.0117 166.342 29.024H166.263L166.494 27.6278H164.157L162.898 35.2873Z" fill="#FDF6E2"/>
<path d="M168.729 35.2873H171.135L172.394 27.6278H169.989L168.729 35.2873ZM171.361 26.7302C172.04 26.7302 172.665 26.2016 172.754 25.5633C172.837 24.92 172.365 24.4014 171.681 24.4014C171.002 24.4014 170.377 24.92 170.279 25.5633C170.185 26.2016 170.677 26.7302 171.361 26.7302Z" fill="#FDF6E2"/>
<path d="M172.666 35.2873H175.047L175.244 34.0456H175.338C175.515 34.7538 176.086 35.397 177.227 35.397C178.9 35.397 180.474 34.0706 180.897 31.4625C181.34 28.7597 180.12 27.528 178.541 27.528C177.345 27.528 176.563 28.2361 176.169 28.9393H176.12L176.745 25.0746H174.339L172.666 35.2873ZM175.653 31.4576C175.849 30.2059 176.494 29.4329 177.375 29.4329C178.27 29.4329 178.624 30.2258 178.427 31.4576C178.231 32.6943 177.601 33.4971 176.715 33.4971C175.835 33.4971 175.456 32.6992 175.653 31.4576Z" fill="#FDF6E2"/>
<path d="M181.528 35.2873H183.909L184.106 34.0456H184.2C184.377 34.7538 184.947 35.397 186.089 35.397C187.762 35.397 189.336 34.0706 189.759 31.4625C190.202 28.7597 188.982 27.528 187.402 27.528C186.207 27.528 185.425 28.2361 185.031 28.9393H184.982L185.607 25.0746H183.201L181.528 35.2873ZM184.514 31.4576C184.711 30.2059 185.356 29.4329 186.236 29.4329C187.132 29.4329 187.486 30.2258 187.289 31.4576C187.092 32.6943 186.463 33.4971 185.577 33.4971C184.696 33.4971 184.318 32.6992 184.514 31.4576Z" fill="#FDF6E2"/>
<path d="M193.903 35.432C195.895 35.432 197.337 34.4595 197.873 32.9536L195.679 32.8887C195.403 33.4024 194.862 33.6716 194.237 33.6716C193.298 33.6716 192.845 33.1081 192.997 32.1357L193.012 32.046H198.045L198.139 31.4376C198.552 28.9193 197.273 27.528 195.128 27.528C192.85 27.528 191.118 29.1138 190.729 31.4875C190.321 33.9359 191.531 35.432 193.903 35.432ZM193.268 30.6298C193.44 29.8718 194.129 29.2883 194.906 29.2883C195.694 29.2883 196.156 29.8468 196.033 30.6298H193.268Z" fill="#FDF6E2"/>
<path d="M200.848 35.417C201.901 35.417 202.708 35.0031 203.239 34.2202H203.298L203.121 35.2873H205.384L206.245 30.0812C206.511 28.4605 205.227 27.528 203.318 27.528C201.281 27.528 199.953 28.5653 199.54 29.9615L201.744 30.0413C201.921 29.5476 202.388 29.2534 203.018 29.2534C203.608 29.2534 203.923 29.5427 203.844 30.0563V30.0812C203.761 30.545 203.239 30.6497 201.936 30.7644C200.386 30.8941 199.018 31.4675 198.738 33.163C198.487 34.674 199.412 35.417 200.848 35.417ZM201.862 33.8212C201.296 33.8212 200.956 33.542 201.035 33.0433C201.109 32.5447 201.547 32.2504 202.255 32.1457C202.698 32.0709 203.279 31.9812 203.564 31.8365L203.451 32.5646C203.323 33.3126 202.624 33.8212 201.862 33.8212Z" fill="#FDF6E2"/>
<path d="M209.994 30.919C210.137 30.0463 210.732 29.5277 211.49 29.5277C212.262 29.5277 212.616 30.0363 212.479 30.8841L211.756 35.2873H214.161L214.968 30.4054C215.254 28.675 214.402 27.528 212.818 27.528C211.696 27.528 210.747 28.0965 210.275 29.034H210.191L210.417 27.6278H208.13L206.87 35.2873H209.276L209.994 30.919Z" fill="#FDF6E2"/>
<path d="M89.8477 69.8085H97.7112V66.1432H97.8834C98.8017 68.4122 100.925 70.0994 104.025 70.0994C108.732 70.0994 112.692 66.376 112.692 58.6383C112.692 50.5515 108.445 47.1772 104.082 47.1772C100.811 47.1772 98.7443 49.097 97.8834 51.366H97.7686V40.0212H89.8477V69.8085ZM97.5964 58.6383C97.5964 55.3221 98.9165 53.344 101.098 53.344C103.279 53.344 104.542 55.3221 104.542 58.6383C104.542 61.9544 103.279 63.9325 101.098 63.9325C98.9165 63.9325 97.5964 61.8962 97.5964 58.6383Z" fill="#FDF6E2"/>
<path d="M116.007 69.8085H123.928V47.468H116.007V69.8085ZM119.967 45.1409C122.12 45.1409 123.87 43.4974 123.87 41.4757C123.87 39.454 122.12 37.8105 119.967 37.8105C117.815 37.8105 116.064 39.454 116.064 41.4757C116.064 43.4974 117.815 45.1409 119.967 45.1409Z" fill="#FDF6E2"/>
<path d="M135.884 40.0212H127.963V69.8085H135.884V40.0212Z" fill="#FDF6E2"/>
<path d="M147.841 40.0212H139.92V69.8085H147.841V40.0212Z" fill="#FDF6E2"/>
<path d="M151.877 69.8085H159.798V47.468H151.877V69.8085ZM155.837 45.1409C157.99 45.1409 159.74 43.4974 159.74 41.4757C159.74 39.454 157.99 37.8105 155.837 37.8105C153.685 37.8105 151.934 39.454 151.934 41.4757C151.934 43.4974 153.685 45.1409 155.837 45.1409Z" fill="#FDF6E2"/>
<path d="M169.975 70.1575C172.845 70.1575 175.012 69.1685 176.346 66.6668H176.519V69.8085H183.923V54.5076C183.923 50.377 180.063 47.1772 173.763 47.1772C167.177 47.1772 163.934 50.6678 163.661 54.7403H170.951C171.138 53.3586 172.142 52.7041 173.649 52.7041C175.026 52.7041 176.002 53.344 176.002 54.5076V54.5658C176.002 55.8602 174.596 56.2675 170.894 56.5438C166.345 56.8784 162.8 58.7401 162.8 63.6416C162.8 68.0922 165.756 70.1575 169.975 70.1575ZM172.558 65.096C171.209 65.096 170.262 64.427 170.262 63.1762C170.262 62.0271 171.066 61.1399 172.903 60.849C174.165 60.6454 175.227 60.3836 176.059 60.0345V61.8962C176.059 63.9325 174.352 65.096 172.558 65.096Z" fill="#FDF6E2"/>
<path d="M187.708 69.8085H195.629V58.1728C195.629 55.613 197.365 53.9258 199.704 53.9258C200.522 53.9258 201.842 54.0567 202.631 54.3331V47.4826C202 47.2935 201.311 47.1772 200.622 47.1772C198.269 47.1772 196.432 48.5734 195.629 51.715H195.399V47.468H187.708V69.8085Z" fill="#FDF6E2"/>
<path d="M211.944 70.0994C215.043 70.0994 217.167 68.4122 218.085 66.1432H218.258V69.8085H226.121V40.0212H218.2V51.366H218.085C217.224 49.097 215.158 47.1772 211.886 47.1772C207.524 47.1772 203.277 50.5515 203.277 58.6383C203.277 66.376 207.237 70.0994 211.944 70.0994ZM214.871 63.9325C212.69 63.9325 211.427 61.9544 211.427 58.6383C211.427 55.3221 212.69 53.344 214.871 53.344C217.052 53.344 218.372 55.3221 218.372 58.6383C218.372 61.8962 217.052 63.9325 214.871 63.9325Z" fill="#FDF6E2"/>
</g>
<defs>
<filter id="filter0_ddd_325_19573" x="0.132812" y="0.401367" width="255.988" height="109.756" filterUnits="userSpaceOnUse" color-interpolation-filters="sRGB">
<feFlood flood-opacity="0" result="BackgroundImageFix"/>
<feColorMatrix in="SourceAlpha" type="matrix" values="0 0 0 0 0 0 0 0 0 0 0 0 0 0 0 0 0 0 127 0" result="hardAlpha"/>
<feOffset dy="8"/>
<feGaussianBlur stdDeviation="5"/>
<feColorMatrix type="matrix" values="0 0 0 0 0 0 0 0 0 0 0 0 0 0 0 0 0 0 0.2 0"/>
<feBlend mode="normal" in2="BackgroundImageFix" result="effect1_dropShadow_325_19573"/>
<feColorMatrix in="SourceAlpha" type="matrix" values="0 0 0 0 0 0 0 0 0 0 0 0 0 0 0 0 0 0 127 0" result="hardAlpha"/>
<feOffset dy="6"/>
<feGaussianBlur stdDeviation="15"/>
<feColorMatrix type="matrix" values="0 0 0 0 0 0 0 0 0 0 0 0 0 0 0 0 0 0 0.12 0"/>
<feBlend mode="normal" in2="effect1_dropShadow_325_19573" result="effect2_dropShadow_325_19573"/>
<feColorMatrix in="SourceAlpha" type="matrix" values="0 0 0 0 0 0 0 0 0 0 0 0 0 0 0 0 0 0 127 0" result="hardAlpha"/>
<feOffset dy="16"/>
<feGaussianBlur stdDeviation="12"/>
<feColorMatrix type="matrix" values="0 0 0 0 0 0 0 0 0 0 0 0 0 0 0 0 0 0 0.14 0"/>
<feBlend mode="normal" in2="effect2_dropShadow_325_19573" result="effect3_dropShadow_325_19573"/>
<feBlend mode="normal" in="SourceGraphic" in2="effect3_dropShadow_325_19573" result="shape"/>
</filter>
</defs>
</svg>
