<svg width="243" height="110" viewBox="0 0 243 110" fill="none" xmlns="http://www.w3.org/2000/svg">
<g filter="url(#filter0_ddd_325_19552)">
<path d="M30.1416 26.0789H33.2017L31.8635 34.287H34.2644L35.6026 26.0789H38.6578L38.9924 24.0742H30.4761L30.1416 26.0789Z" fill="#FDF6E2"/>
<path d="M39.5914 34.4166C40.6442 34.4166 41.451 34.0027 41.9824 33.2198H42.0414L41.8643 34.287H44.1274L44.9884 29.0809C45.2541 27.4602 43.97 26.5277 42.0611 26.5277C40.0243 26.5277 38.6959 27.5649 38.2827 28.9612L40.4868 29.041C40.6639 28.5473 41.1313 28.2531 41.761 28.2531C42.3514 28.2531 42.6662 28.5423 42.5875 29.0559V29.0809C42.5039 29.5446 41.9824 29.6494 40.6786 29.764C39.1289 29.8937 37.7612 30.4672 37.4807 32.1627C37.2298 33.6736 38.1548 34.4166 39.5914 34.4166ZM40.6048 32.8209C40.0391 32.8209 39.6996 32.5416 39.7783 32.043C39.8521 31.5443 40.29 31.2501 40.9984 31.1454C41.4412 31.0706 42.0217 30.9808 42.3071 30.8362L42.1939 31.5642C42.066 32.3123 41.3674 32.8209 40.6048 32.8209Z" fill="#FDF6E2"/>
<path d="M45.5985 34.287H48.0043L48.6832 30.1281C48.8406 29.2155 49.5786 28.6021 50.4297 28.6021C50.7298 28.6021 51.1382 28.647 51.3596 28.7318L51.7138 26.6075C51.5121 26.5576 51.2809 26.5227 51.0545 26.5227C50.228 26.5227 49.4851 27.0114 49.0423 28.0237H48.9636L49.1949 26.6274H46.8579L45.5985 34.287Z" fill="#FDF6E2"/>
<path d="M51.4297 34.287H53.8355L54.5144 30.1281C54.6718 29.2155 55.4098 28.6021 56.2609 28.6021C56.5611 28.6021 56.9694 28.647 57.1908 28.7318L57.545 26.6075C57.3433 26.5576 57.1121 26.5227 56.8858 26.5227C56.0592 26.5227 55.3163 27.0114 54.8736 28.0237H54.7948L55.0261 26.6274H52.6892L51.4297 34.287Z" fill="#FDF6E2"/>
<path d="M59.0874 34.4166C60.1402 34.4166 60.9471 34.0027 61.4784 33.2198H61.5375L61.3603 34.287H63.6235L64.4844 29.0809C64.7501 27.4602 63.466 26.5277 61.5571 26.5277C59.5203 26.5277 58.192 27.5649 57.7787 28.9612L59.9828 29.041C60.1599 28.5473 60.6273 28.2531 61.257 28.2531C61.8474 28.2531 62.1623 28.5423 62.0836 29.0559V29.0809C61.9999 29.5446 61.4784 29.6494 60.1747 29.764C58.6249 29.8937 57.2572 30.4672 56.9768 32.1627C56.7259 33.6736 57.6508 34.4166 59.0874 34.4166ZM60.1009 32.8209C59.5351 32.8209 59.1956 32.5416 59.2743 32.043C59.3481 31.5443 59.786 31.2501 60.4945 31.1454C60.9372 31.0706 61.5178 30.9808 61.8031 30.8362L61.69 31.5642C61.5621 32.3123 60.8634 32.8209 60.1009 32.8209Z" fill="#FDF6E2"/>
<path d="M68.1448 37.3189C70.4128 37.3189 72.1446 36.2717 72.4496 34.3169L73.7091 26.6274H71.3131L71.1016 27.9389H71.0327C70.8507 27.2358 70.3144 26.5277 69.1238 26.5277C67.5446 26.5277 65.9063 27.7594 65.4684 30.4472C65.0453 33.0503 66.2211 34.1823 67.8791 34.1823C68.991 34.1823 69.8224 33.6587 70.216 32.9505H70.2997L70.0783 34.297C69.9405 35.2744 69.2813 35.6284 68.4744 35.6284C67.6922 35.6284 67.2937 35.3392 67.2346 34.8555L64.9321 34.9851C64.9075 36.3265 65.9801 37.3189 68.1448 37.3189ZM68.991 32.407C68.1005 32.407 67.7414 31.674 67.9382 30.4472C68.13 29.2255 68.745 28.4326 69.6404 28.4326C70.5211 28.4326 70.9097 29.2055 70.7178 30.4472C70.5211 31.6789 69.8667 32.407 68.991 32.407Z" fill="#FDF6E2"/>
<path d="M77.506 34.4316C79.8773 34.4316 81.5698 32.8458 81.9535 30.4971C82.3372 28.1284 81.1516 26.5277 78.7753 26.5277C76.399 26.5277 74.7066 28.1134 74.3278 30.4672C73.9391 32.8309 75.1199 34.4316 77.506 34.4316ZM77.7766 32.5915C76.9058 32.5915 76.5663 31.7438 76.7729 30.4821C76.9746 29.2055 77.6191 28.3329 78.5047 28.3329C79.3706 28.3329 79.7101 29.1906 79.5083 30.4472C79.3017 31.7288 78.6621 32.5915 77.7766 32.5915Z" fill="#FDF6E2"/>
<path d="M85.6999 29.9186C85.8426 29.046 86.4379 28.5273 87.1956 28.5273C87.968 28.5273 88.3222 29.036 88.1845 29.8837L87.4612 34.287H89.867L90.6739 29.405C90.9592 27.6746 90.1081 26.5277 88.5239 26.5277C87.4022 26.5277 86.4527 27.0962 85.9804 28.0337H85.8967L86.1231 26.6274H83.8353L82.5759 34.287H84.9817L85.6999 29.9186Z" fill="#FDF6E2"/>
<path d="M97.0045 29.2155H92.3454L92.0453 31.0955H96.7044L97.0045 29.2155Z" fill="#FDF6E2"/>
<path d="M97.8765 34.287H100.312L100.833 31.1154H102.477C104.804 31.1154 106.467 29.7391 106.806 27.6098C107.15 25.5054 105.979 24.0742 103.711 24.0742H99.5492L97.8765 34.287ZM101.153 29.1706L101.665 26.0639H102.865C103.962 26.0639 104.435 26.6573 104.287 27.6098C104.135 28.5523 103.461 29.1706 102.349 29.1706H101.153Z" fill="#FDF6E2"/>
<path d="M110.274 34.4316C112.646 34.4316 114.338 32.8458 114.722 30.4971C115.106 28.1284 113.92 26.5277 111.544 26.5277C109.168 26.5277 107.475 28.1134 107.096 30.4672C106.708 32.8309 107.888 34.4316 110.274 34.4316ZM110.545 32.5915C109.674 32.5915 109.335 31.7438 109.541 30.4821C109.743 29.2055 110.388 28.3329 111.273 28.3329C112.139 28.3329 112.479 29.1906 112.277 30.4472C112.07 31.7288 111.431 32.5915 110.545 32.5915Z" fill="#FDF6E2"/>
<path d="M114.857 37.1593H117.263L117.932 33.0453H118.001C118.178 33.7534 118.749 34.3967 119.89 34.3967C121.563 34.3967 123.137 33.0702 123.56 30.4622C124.003 27.7594 122.783 26.5277 121.204 26.5277C120.008 26.5277 119.226 27.2358 118.833 27.9389H118.759L118.97 26.6274H116.589L114.857 37.1593ZM118.316 30.4572C118.513 29.2055 119.157 28.4326 120.038 28.4326C120.933 28.4326 121.287 29.2255 121.091 30.4572C120.879 31.6939 120.264 32.4968 119.379 32.4968C118.498 32.4968 118.119 31.6989 118.316 30.4572Z" fill="#FDF6E2"/>
<path d="M123.719 37.1593H126.125L126.794 33.0453H126.863C127.04 33.7534 127.611 34.3967 128.752 34.3967C130.425 34.3967 131.999 33.0702 132.422 30.4622C132.865 27.7594 131.645 26.5277 130.066 26.5277C128.87 26.5277 128.088 27.2358 127.694 27.9389H127.621L127.832 26.6274H125.451L123.719 37.1593ZM127.178 30.4572C127.375 29.2055 128.019 28.4326 128.9 28.4326C129.795 28.4326 130.149 29.2255 129.953 30.4572C129.741 31.6939 129.126 32.4968 128.24 32.4968C127.36 32.4968 126.981 31.6989 127.178 30.4572Z" fill="#FDF6E2"/>
<path d="M133.818 37.1593C135.545 37.1593 136.549 36.2767 137.183 35.02L141.4 26.6274H138.777L136.465 32.0978H136.386L135.894 26.6274H133.464L134.847 34.5563L134.709 34.7906C134.369 35.3591 133.872 35.3791 133.208 35.1447L132.382 36.915C132.726 37.0646 133.238 37.1593 133.818 37.1593Z" fill="#FDF6E2"/>
<path d="M59.3479 53.7395C59.147 49.0125 55.2727 46.1764 48.9015 46.1764C42.6021 46.1764 38.7134 48.7944 38.7421 53.4486C38.7134 56.9684 40.9662 59.2228 45.4576 60.0228L49.3607 60.7209C51.0826 61.0409 51.8575 61.5063 51.8862 62.3499C51.8575 63.2807 50.81 63.8043 49.3607 63.8043C47.567 63.8043 46.3043 63.0189 46.089 61.5936H38.2255C38.656 66.1751 42.559 69.2149 49.3033 69.2149C55.4018 69.2149 59.8932 66.2042 59.9219 61.419C59.8932 58.1174 57.7121 56.1976 53.2064 55.3685L48.7293 54.554C47.0504 54.2486 46.5769 53.6377 46.6056 52.9832C46.5769 52.0524 47.7105 51.5287 49.0737 51.5287C50.6378 51.5287 51.9436 52.3723 52.0584 53.7395H59.3479Z" fill="#FDF6E2"/>
<path d="M73.5755 69.2149C80.7502 69.2149 84.9977 64.5607 84.9977 57.6956C84.9977 50.8306 80.7502 46.1764 73.5755 46.1764C66.4007 46.1764 62.1533 50.8306 62.1533 57.6956C62.1533 64.5607 66.4007 69.2149 73.5755 69.2149ZM73.6329 63.2807C71.5091 63.2807 70.2464 61.1427 70.2464 57.6375C70.2464 54.1322 71.5091 51.9942 73.6329 51.9942C75.6418 51.9942 76.9045 54.1322 76.9045 57.6375C76.9045 61.1427 75.6418 63.2807 73.6329 63.2807Z" fill="#FDF6E2"/>
<path d="M102.504 59.0337C102.518 61.2445 101.256 62.5826 99.2897 62.5826C97.2952 62.5826 96.1472 61.2445 96.1329 59.0337V46.4672H88.2119V60.7209C88.2263 65.6079 91.2684 69.0986 95.9033 69.0986C99.1893 69.0986 101.715 67.4114 102.676 64.5607H102.906V68.8077H110.425V46.4672H102.504V59.0337Z" fill="#FDF6E2"/>
<path d="M122.374 39.0204H114.454V68.8077H122.374V39.0204Z" fill="#FDF6E2"/>
<path d="M126.41 68.8077H134.331V55.7758C134.331 53.8268 135.336 52.6341 136.972 52.6341C138.607 52.6341 139.669 53.8268 139.669 55.7758V68.8077H147.246V55.7758C147.246 53.8268 148.25 52.6341 149.886 52.6341C151.522 52.6341 152.584 53.8268 152.584 55.7758V68.8077H160.505V53.7395C160.505 49.158 157.606 46.1764 153.387 46.1764C150.116 46.1764 147.475 47.9799 146.729 50.7143H146.5C146.04 47.9799 143.572 46.1764 140.473 46.1764C137.416 46.1764 135.077 47.9217 134.159 50.7143H133.929V46.4672H126.41V68.8077Z" fill="#FDF6E2"/>
<path d="M170.553 69.1567C173.423 69.1567 175.59 68.1677 176.924 65.6661H177.096V68.8077H184.501V53.5068C184.501 49.3762 180.641 46.1764 174.341 46.1764C167.755 46.1764 164.512 49.667 164.239 53.7395H171.529C171.715 52.3578 172.72 51.7033 174.226 51.7033C175.604 51.7033 176.58 52.3432 176.58 53.5068V53.565C176.58 54.8595 175.173 55.2667 171.471 55.543C166.923 55.8776 163.378 57.7393 163.378 62.6408C163.378 67.0914 166.334 69.1567 170.553 69.1567ZM173.136 64.0952C171.787 64.0952 170.84 63.4262 170.84 62.1754C170.84 61.0263 171.643 60.1391 173.48 59.8482C174.743 59.6446 175.805 59.3828 176.637 59.0337V60.8954C176.637 62.9317 174.93 64.0952 173.136 64.0952Z" fill="#FDF6E2"/>
<path d="M201.429 46.4672H197.641V41.1149H189.72V46.4672H186.908V52.2851H189.72V62.379C189.663 67.0623 192.518 69.4331 197.986 69.1277C199.779 69.0258 201.114 68.6477 201.831 68.4295L200.683 62.7862C200.382 62.859 199.607 63.0189 199.133 63.0189C198.1 63.0189 197.641 62.5535 197.641 61.6227V52.2851H201.429V46.4672Z" fill="#FDF6E2"/>
<path d="M214.986 69.2149C221.099 69.2149 225.031 66.2478 225.777 61.5936H218.545C218.086 62.859 216.78 63.5716 215.158 63.5716C212.805 63.5716 211.427 62.0008 211.427 59.8482V59.4992H225.777V57.6375C225.777 50.5252 221.472 46.1764 214.814 46.1764C207.984 46.1764 203.621 50.7724 203.621 57.6956C203.621 64.9243 207.926 69.2149 214.986 69.2149ZM211.427 55.0776C211.47 53.1432 213.049 51.8196 214.986 51.8196C216.952 51.8196 218.444 53.1577 218.487 55.0776H211.427Z" fill="#FDF6E2"/>
</g>
<defs>
<filter id="filter0_ddd_325_19552" x="0.141602" y="0.0742188" width="255.636" height="109.141" filterUnits="userSpaceOnUse" color-interpolation-filters="sRGB">
<feFlood flood-opacity="0" result="BackgroundImageFix"/>
<feColorMatrix in="SourceAlpha" type="matrix" values="0 0 0 0 0 0 0 0 0 0 0 0 0 0 0 0 0 0 127 0" result="hardAlpha"/>
<feOffset dy="8"/>
<feGaussianBlur stdDeviation="5"/>
<feColorMatrix type="matrix" values="0 0 0 0 0 0 0 0 0 0 0 0 0 0 0 0 0 0 0.2 0"/>
<feBlend mode="normal" in2="BackgroundImageFix" result="effect1_dropShadow_325_19552"/>
<feColorMatrix in="SourceAlpha" type="matrix" values="0 0 0 0 0 0 0 0 0 0 0 0 0 0 0 0 0 0 127 0" result="hardAlpha"/>
<feOffset dy="6"/>
<feGaussianBlur stdDeviation="15"/>
<feColorMatrix type="matrix" values="0 0 0 0 0 0 0 0 0 0 0 0 0 0 0 0 0 0 0.12 0"/>
<feBlend mode="normal" in2="effect1_dropShadow_325_19552" result="effect2_dropShadow_325_19552"/>
<feColorMatrix in="SourceAlpha" type="matrix" values="0 0 0 0 0 0 0 0 0 0 0 0 0 0 0 0 0 0 127 0" result="hardAlpha"/>
<feOffset dy="16"/>
<feGaussianBlur stdDeviation="12"/>
<feColorMatrix type="matrix" values="0 0 0 0 0 0 0 0 0 0 0 0 0 0 0 0 0 0 0.14 0"/>
<feBlend mode="normal" in2="effect2_dropShadow_325_19552" result="effect3_dropShadow_325_19552"/>
<feBlend mode="normal" in="SourceGraphic" in2="effect3_dropShadow_325_19552" result="shape"/>
</filter>
</defs>
</svg>
