<svg width="428" height="148" viewBox="0 0 428 148" fill="none" xmlns="http://www.w3.org/2000/svg">
<g filter="url(#filter0_dd_389_7863)">
<path d="M19.5288 119.103H50.3517L68.5557 76.381H69.3832L73.5205 119.103H104.343L137.442 39.4662H108.894L92.1383 87.5798H91.5177L89.0353 39.4662H61.3155L43.1114 87.9946H42.4908L41.4565 39.4662H12.9092L19.5288 119.103Z" fill="#FBF9F6"/>
<path d="M169.092 74.3071C170.333 66.4264 175.712 61.6565 182.745 61.6565C189.985 61.6565 193.295 66.4264 192.054 74.3071L184.607 119.103H213.154L221.636 68.2929C224.532 50.8724 215.636 38.4292 198.88 38.4292C187.089 38.4292 177.366 44.4435 172.195 54.6054H171.367L178.194 12.9207H150.681L133.097 119.103H161.645L169.092 74.3071Z" fill="#FBF9F6"/>
<path d="M227.04 119.103H255.587L268.826 39.4662H240.279L227.04 119.103ZM255.794 31.1707C263.551 31.1707 270.792 25.2602 271.929 18.1054C273.067 10.8469 267.792 5.04004 260.035 5.04004C252.277 5.04004 245.037 10.8469 243.796 18.1054C242.555 25.2602 248.037 31.1707 255.794 31.1707Z" fill="#FBF9F6"/>
<path d="M330.744 39.4662H317.039L320.194 20.3866H291.646L288.492 39.4662H278.407L274.89 60.2048H285.078L279.131 96.1863C276.028 112.777 284.923 121.228 304.989 120.243C311.402 119.932 316.367 118.584 319.263 117.755L318.435 97.638C317.194 97.8454 314.298 98.4676 312.643 98.4676C308.919 98.4676 307.523 96.8085 308.092 93.4903L313.626 60.2048H327.227L330.744 39.4662Z" fill="#FBF9F6"/>
<path d="M366.156 120.554C388.291 120.554 404.012 109.978 409.598 93.3866H383.533C381.051 97.9491 375.879 100.438 370.087 100.438C361.605 100.438 357.675 94.8383 358.916 87.165L359.175 85.9207H410.839L411.873 79.2844C416.011 53.9832 403.185 38.4292 379.189 38.4292C354.572 38.4292 336.161 54.8128 332.024 79.4917C327.679 105.208 340.712 120.554 366.156 120.554ZM362.122 70.1594C363.726 63.1601 369.828 58.5457 376.706 58.5457C383.74 58.5457 388.084 63.3156 387.05 70.1594H362.122Z" fill="#FBF9F6"/>
</g>
<defs>
<filter id="filter0_dd_389_7863" x="0.0549889" y="0.0618033" width="427.44" height="147.416" filterUnits="userSpaceOnUse" color-interpolation-filters="sRGB">
<feFlood flood-opacity="0" result="BackgroundImageFix"/>
<feColorMatrix in="SourceAlpha" type="matrix" values="0 0 0 0 0 0 0 0 0 0 0 0 0 0 0 0 0 0 127 0" result="hardAlpha"/>
<feOffset dx="1" dy="5.43135"/>
<feGaussianBlur stdDeviation="5.2048"/>
<feColorMatrix type="matrix" values="0 0 0 0 0 0 0 0 0 0 0 0 0 0 0 0 0 0 0.117297 0"/>
<feBlend mode="normal" in2="BackgroundImageFix" result="effect1_dropShadow_389_7863"/>
<feColorMatrix in="SourceAlpha" type="matrix" values="0 0 0 0 0 0 0 0 0 0 0 0 0 0 0 0 0 0 127 0" result="hardAlpha"/>
<feOffset dx="1" dy="13.0687"/>
<feGaussianBlur stdDeviation="6.9271"/>
<feColorMatrix type="matrix" values="0 0 0 0 0 0 0 0 0 0 0 0 0 0 0 0 0 0 0.0945694 0"/>
<feBlend mode="normal" in2="effect1_dropShadow_389_7863" result="effect2_dropShadow_389_7863"/>
<feBlend mode="normal" in="SourceGraphic" in2="effect2_dropShadow_389_7863" result="shape"/>
</filter>
</defs>
</svg>
