<svg width="53" height="8" viewBox="0 0 53 8" fill="none" xmlns="http://www.w3.org/2000/svg">
<path d="M8.75127 0.205102H5.70248L2.87758 3.82919V0.143831H0V7.79821H2.87758L2.87978 4.18547L5.6542 7.85948H8.83249L5.86052 3.89273L8.75127 0.205102Z" fill="#161616"/>
<path d="M17.5596 0.940359C17.1533 0.586372 16.6684 0.342296 16.1483 0.230065C15.3775 0.05926 14.5899 -0.0169103 13.8019 0.00313352C13.0182 -0.0165147 12.235 0.0596572 11.4686 0.230065C10.9502 0.340861 10.4667 0.583414 10.0617 0.93582C9.71375 1.26797 9.47184 1.70171 9.36805 2.1794C9.23807 2.77497 9.17691 3.38438 9.18587 3.99485C9.17604 4.60911 9.2372 5.22238 9.36805 5.82164C9.47445 6.29557 9.71248 6.72703 10.0529 7.06296C10.455 7.42176 10.9407 7.66582 11.462 7.77098C12.2313 7.93713 13.0162 8.01326 13.8019 7.99791C14.5898 8.01392 15.3769 7.9378 16.1483 7.77098C16.6688 7.66522 17.1545 7.42386 17.5596 7.06977C17.9034 6.73547 18.1439 6.30362 18.251 5.82845C18.381 5.23289 18.4422 4.62347 18.4332 4.013C18.4422 3.40253 18.381 2.79312 18.251 2.19756C18.1495 1.71556 17.9084 1.277 17.5596 0.940359ZM15.7334 4.84811C15.6961 5.06539 15.5967 5.26614 15.4481 5.42452C15.2764 5.5876 15.0645 5.69835 14.8357 5.74449C14.4959 5.81833 14.149 5.85183 13.8019 5.84434C13.4518 5.85285 13.1019 5.81934 12.7593 5.74449C12.5327 5.69739 12.3231 5.58668 12.1534 5.42452C12.0048 5.26614 11.9054 5.06539 11.8681 4.84811C11.816 4.56927 11.7917 4.28563 11.7957 4.00166C11.7917 3.71693 11.816 3.43254 11.8681 3.15294C11.9049 2.93811 12.0045 2.7401 12.1534 2.58561C12.3255 2.4284 12.5344 2.32044 12.7593 2.27244C13.1019 2.19759 13.4518 2.16408 13.8019 2.17259C14.149 2.1651 14.4959 2.1986 14.8357 2.27244C15.0627 2.31866 15.2739 2.42589 15.4481 2.58334C15.5971 2.73783 15.6967 2.93584 15.7334 3.15067C15.785 3.43109 15.8085 3.71626 15.8037 4.00166C15.8084 4.28555 15.7848 4.5692 15.7334 4.84811Z" fill="#161616"/>
<path d="M27.7925 0.940359C27.3868 0.586707 26.9026 0.34265 26.3833 0.230065C25.6125 0.05926 24.825 -0.0169103 24.0369 0.00313352C23.254 -0.0165267 22.4715 0.0596463 21.7059 0.230065C21.187 0.341321 20.7028 0.583801 20.2967 0.93582C19.9487 1.26755 19.7074 1.70156 19.6053 2.1794C19.4734 2.77467 19.4115 3.38423 19.4209 3.99485C19.4106 4.60925 19.4725 5.22268 19.6053 5.82164C19.7101 6.2957 19.9475 6.7274 20.2879 7.06296C20.6906 7.42088 21.1761 7.66482 21.6971 7.77098C22.4664 7.93702 23.2512 8.01314 24.0369 7.99791C24.8248 8.01392 25.612 7.9378 26.3833 7.77098C26.9037 7.66287 27.3887 7.41916 27.7925 7.06296C28.137 6.72926 28.3776 6.29716 28.4839 5.82164C28.6158 5.22637 28.6777 4.61681 28.6683 4.0062C28.6777 3.39558 28.6158 2.78602 28.4839 2.19075C28.3821 1.71083 28.1408 1.27455 27.7925 0.940359ZM25.9707 4.84811C25.9305 5.06533 25.8298 5.26568 25.6809 5.42452C25.5093 5.5876 25.2973 5.69835 25.0685 5.74449C24.7287 5.81833 24.3819 5.85183 24.0347 5.84434C23.6846 5.85285 23.3348 5.81934 22.9921 5.74449C22.7666 5.69645 22.5579 5.58584 22.3885 5.42452C22.2406 5.26558 22.1414 5.06508 22.1032 4.84811C22.051 4.56927 22.0267 4.28563 22.0307 4.00166C22.0267 3.71693 22.051 3.43254 22.1032 3.15294C22.1408 2.93843 22.2403 2.74069 22.3885 2.58561C22.5606 2.4284 22.7694 2.32044 22.9943 2.27244C23.6805 2.13929 24.3846 2.13929 25.0707 2.27244C25.2972 2.31969 25.5076 2.4277 25.6809 2.58561C25.8297 2.74057 25.9299 2.93826 25.9685 3.15294C26.0187 3.43278 26.0422 3.71706 26.0387 4.00166C26.043 4.28543 26.0202 4.56895 25.9707 4.84811Z" fill="#161616"/>
<path d="M38.9626 4.14462L41.827 1.73008V7.8141H38.9626V4.14462Z" fill="#161616"/>
<path d="M43.4425 0.196025H48.7587C49.4258 0.18524 50.0923 0.246081 50.7473 0.37757C51.218 0.466691 51.6662 0.654345 52.0643 0.929012C52.3902 1.16497 52.6396 1.49717 52.7798 1.88212C52.9337 2.32201 53.0081 2.78738 52.9993 3.25505V7.8141H50.1459V3.61814C50.1597 3.47034 50.1412 3.32122 50.0918 3.18179C50.0424 3.04236 49.9634 2.91617 49.8605 2.81254C49.6696 2.64688 49.3074 2.56518 48.7784 2.56518H46.3135V7.8141H43.4425V0.196025Z" fill="#161616"/>
<path d="M34.0349 2.18621H29.6318V0.196025H37.5688V2.01147L33.1789 5.71272H35.927L33.4796 7.80048H29.6318V5.7876L34.0349 2.18621Z" fill="#161616"/>
<path d="M38.9636 3.27296L41.7665 0.910605V0.188965H38.9636V3.27296Z" fill="#4DB2CD"/>
<path d="M36.8762 5.78281H37.5566V7.80931H34.5078L36.8762 5.78281Z" fill="#4DB2CD"/>
</svg>
